<?xml version="1.0" encoding="UTF-8" standalone="no"?>
<!-- Created with Inkscape (http://www.inkscape.org/) -->

<svg
   xmlns:dc="http://purl.org/dc/elements/1.1/"
   xmlns:cc="http://creativecommons.org/ns#"
   xmlns:rdf="http://www.w3.org/1999/02/22-rdf-syntax-ns#"
   xmlns:svg="http://www.w3.org/2000/svg"
   xmlns="http://www.w3.org/2000/svg"
   xmlns:sodipodi="http://sodipodi.sourceforge.net/DTD/sodipodi-0.dtd"
   xmlns:inkscape="http://www.inkscape.org/namespaces/inkscape"
   width="500"
   height="500"
   id="svg3779"
   version="1.1"
   inkscape:version="0.48.5 r10040"
   sodipodi:docname="Gear.svg">
  <defs
     id="defs3781" />
  <sodipodi:namedview
     id="base"
     pagecolor="#ffffff"
     bordercolor="#666666"
     borderopacity="1.0"
     inkscape:pageopacity="0.0"
     inkscape:pageshadow="2"
     inkscape:zoom="0.7"
     inkscape:cx="288.00428"
     inkscape:cy="247.24825"
     inkscape:document-units="px"
     inkscape:current-layer="layer1"
     showgrid="false"
     showguides="true"
     inkscape:guide-bbox="true"
     inkscape:window-width="1366"
     inkscape:window-height="706"
     inkscape:window-x="0"
     inkscape:window-y="27"
     inkscape:window-maximized="1" />
  <metadata
     id="metadata3784">
    <rdf:RDF>
      <cc:Work
         rdf:about="">
        <dc:format>image/svg+xml</dc:format>
        <dc:type
           rdf:resource="http://purl.org/dc/dcmitype/StillImage" />
        <dc:title></dc:title>
      </cc:Work>
    </rdf:RDF>
  </metadata>
  <g
     inkscape:label="Layer 1"
     inkscape:groupmode="layer"
     id="layer1"
     transform="translate(0,-552.36218)">
    <path
       style="fill:none;stroke:#ffffff;stroke-width:100;stroke-linecap:butt;stroke-linejoin:miter;stroke-miterlimit:4;stroke-dasharray:none"
       d="m 137.84375,622.96039 54.53125,95.53125 c -33.7367,19.74197 -56.45533,56.29296 -56.65625,98.15625 l -110,0.5625 110,0.5625 c 0.20304,41.8608 22.92115,78.38397 56.65625,98.125 l -54.53125,95.53121 55.46875,-94.96871 c 16.70747,9.56325 36.05721,15.03125 56.6875,15.03125 20.63029,0 39.98003,-5.468 56.6875,-15.03125 l 55.46875,94.96871 -54.53125,-95.53121 c 33.7351,-19.74103 56.45321,-56.2642 56.65625,-98.125 l 110,-0.5625 -110,-0.5625 C 364.08033,774.7846 341.3617,738.23361 307.625,718.49164 l 54.53125,-95.53125 -55.46875,94.96875 c -16.70747,-9.56325 -36.05721,-15 -56.6875,-15 -20.63029,0 -39.98003,5.43675 -56.6875,15 l -55.46875,-94.96875 z"
       id="path4317"
       inkscape:connector-curvature="0" />
  </g>
</svg>
